# xmcd CD database file
#
# Track frame offsets:
#	150
#	15992
#	28798
#	42235
#	64884
#	83962
#	99896
#	114494
#	130817
#	147395
#	167456
#	189594
#	207774
#	220801
#
# Disc length: 3154 seconds
#
# Revision: 0
# Processed by: cddbd v1.5.1PL2 Copyright (c) Steve Scherf et al.
# Submitted via: CDex 1.51
#
DISCID=ba0c500e
DTITLE=中ノ森BAND - OH MY DARLIN' 〜Girls having Fun〜
DYEAR=2006
DGENRE=JPop
TTITLE0=smil&wild
TTITLE1=ピンクモンスター
TTITLE2=Whatever
TTITLE3=Oh My Darlin'
TTITLE4=恋愛Express
TTITLE5=TOY
TTITLE6=ラブコントロール
TTITLE7=クイックサンド
TTITLE8=空
TTITLE9=磁石
TTITLE10=サテライト
TTITLE11=new world
TTITLE12=シークレットプール
TTITLE13=ラズベリーパイ
EXTD=YEAR: 2006
EXTT0=
EXTT1=
EXTT2=
EXTT3=
EXTT4=
EXTT5=
EXTT6=
EXTT7=
EXTT8=
EXTT9=
EXTT10=
EXTT11=
EXTT12=
EXTT13=
PLAYORDER=
